<svg width="27" height="39" viewBox="0 0 27 39" fill="none" xmlns="http://www.w3.org/2000/svg">
<path d="M26.6282 19.4997C26.6282 19.812 26.4495 20.1636 26.182 20.3982L5.37973 38.6015C5.11162 38.8361 4.7104 38.992 4.35293 38.992C3.99545 38.992 3.59423 38.8356 3.32613 38.6015L1.09441 36.6486C0.826305 36.414 0.648193 36.1017 0.648193 35.7501C0.648193 35.4378 0.82693 35.0862 1.09441 34.8516L18.6375 19.5003L1.09441 4.14894C0.826305 3.91433 0.648193 3.56323 0.648193 3.25042C0.648193 2.93761 0.82693 2.58651 1.09441 2.3519L3.32613 0.399014C3.59423 0.164405 3.99545 0.00854492 4.35293 0.00854492C4.7104 0.00854492 5.11162 0.164952 5.37973 0.399014L26.182 18.6023C26.4501 18.8369 26.6282 19.188 26.6282 19.5008V19.4997Z" fill="#666666"/>
</svg>
