<svg width="0" height="0" class="hidden">
  <symbol fill="none" xmlns="http://www.w3.org/2000/svg" viewBox="0 0 21 27" id="pinterest">
    <path d="M10.81.951C3.76.951.205 6.006.205 10.221c0 2.555.969 4.824 3.039 5.669.341.14.645.006.743-.369.07-.261.23-.921.304-1.195.101-.369.061-.5-.211-.825-.599-.704-.98-1.62-.98-2.911 0-3.75 2.805-7.106 7.306-7.106 3.986 0 6.176 2.438 6.176 5.686 0 4.28-1.895 7.89-4.706 7.89-1.553 0-2.715-1.284-2.341-2.859.446-1.884 1.31-3.911 1.31-5.266 0-1.215-.654-2.226-2-2.226-1.586 0-2.864 1.64-2.864 3.84 0 1.4.476 2.348.476 2.348l-1.91 8.087c-.566 2.4-.085 5.343-.04 5.64.02.175.248.22.35.086.145-.191 2.038-2.529 2.678-4.859.185-.66 1.045-4.075 1.045-4.075.519.981 2.021 1.846 3.625 1.846 4.771 0 8.006-4.346 8.006-10.17-.005-4.4-3.733-8.5-9.4-8.5h-.001z" fill="#134731"></path>
  </symbol>
  <symbol fill="none" xmlns="http://www.w3.org/2000/svg" viewBox="0 0 26 23" id="telegram">
    <path d="M23.43.756L.838 9.936c-.909.427-1.217 1.283-.22 1.748l5.796 1.94L20.427 4.5c.766-.573 1.549-.42.875.21L9.266 16.192l-.378 4.86c.35.75.992.753 1.4.38l3.33-3.32 5.703 4.5c1.325.826 2.046.293 2.33-1.221l3.741-18.664C25.781.863 25.118.041 23.43.756z" fill="#134731"></path>
  </symbol>
  <symbol fill="none" xmlns="http://www.w3.org/2000/svg" viewBox="0 0 30 30" id="instagram">
    <path d="M15.009 2.702c4.01 0 4.485.017 6.062.088 1.466.064 2.257.31 2.785.515a4.64 4.64 0 011.723 1.12c.528.527.85 1.025 1.126 1.723.205.527.452 1.324.516 2.783.07 1.583.088 2.058.088 6.06 0 4.003-.018 4.483-.088 6.06-.064 1.465-.31 2.256-.516 2.784a4.64 4.64 0 01-1.12 1.723 4.703 4.703 0 01-1.723 1.125c-.528.205-1.325.451-2.785.516-1.583.07-2.058.088-6.062.088-4.005 0-4.485-.018-6.062-.088-1.466-.065-2.258-.31-2.785-.516a4.64 4.64 0 01-1.724-1.12 4.702 4.702 0 01-1.126-1.722c-.205-.528-.451-1.325-.516-2.784-.07-1.582-.088-2.057-.088-6.06s.018-4.483.088-6.06c.065-1.465.311-2.256.516-2.783a4.64 4.64 0 011.12-1.723 4.704 4.704 0 011.724-1.126c.527-.205 1.325-.45 2.785-.515 1.577-.07 2.052-.088 6.062-.088zm0-2.702c-4.075 0-4.585.018-6.185.088-1.595.07-2.691.328-3.641.697-.991.387-1.83.897-2.662 1.735A7.35 7.35 0 00.786 5.175C.416 6.13.158 7.22.088 8.815.018 10.42 0 10.93 0 15.002c0 4.073.018 4.583.088 6.183.07 1.594.328 2.69.698 3.64.387.99.897 1.828 1.735 2.66a7.336 7.336 0 002.656 1.729c.956.369 2.046.627 3.64.697 1.601.07 2.111.088 6.186.088 4.075 0 4.585-.018 6.185-.088 1.595-.07 2.691-.328 3.641-.697a7.337 7.337 0 002.656-1.73 7.333 7.333 0 001.73-2.654c.369-.955.627-2.045.697-3.64.07-1.6.088-2.11.088-6.182 0-4.073-.018-4.583-.088-6.183-.07-1.594-.328-2.69-.698-3.64a7.027 7.027 0 00-1.717-2.666A7.336 7.336 0 0024.84.791C23.885.422 22.795.164 21.2.094 19.593.018 19.083 0 15.009 0z" fill="#134731"></path>
    <path d="M15.009 7.296a7.71 7.71 0 00-7.71 7.707 7.71 7.71 0 0015.42 0 7.71 7.71 0 00-7.71-7.707zm0 12.706a5 5 0 01-5.001-4.999 5 5 0 0110.002 0 5 5 0 01-5.001 4.999zm9.814-13.01a1.8 1.8 0 11-3.599-.001 1.8 1.8 0 013.6 0z" fill="#134731"></path>
  </symbol>
  <symbol fill="none" xmlns="http://www.w3.org/2000/svg" viewBox="0 0 16 28" id="facebook">
    <path d="M10.666 10.666h5v5h-5v11.666h-5V15.666h-5v-5h5V8.575c0-1.981.624-4.485 1.864-5.854C8.77 1.35 10.319.666 12.174.666h3.494v5h-3.5c-.83 0-1.5.67-1.5 1.499v3.501h-.002z" fill="#134731"></path>
  </symbol>
</svg>